<svg width="1800" height="620" viewBox="0 0 1800 620" fill="none" xmlns="http://www.w3.org/2000/svg" role="img" aria-labelledby="logoTitle logoDesc">
  <title id="logoTitle">Opticable logo</title>
  <desc id="logoDesc">Opticable wordmark with green building and WiFi symbol.</desc>
  <defs>
    <linearGradient id="markStroke" x1="70" y1="32" x2="230" y2="310" gradientUnits="userSpaceOnUse">
      <stop stop-color="#5ED989" />
      <stop offset="1" stop-color="#1D8359" />
    </linearGradient>
    <linearGradient id="markFill" x1="155" y1="126" x2="155" y2="302" gradientUnits="userSpaceOnUse">
      <stop stop-color="#58CF84" />
      <stop offset="1" stop-color="#1B7B53" />
    </linearGradient>
  </defs>
  <g font-family="Arial Black, Segoe UI Black, sans-serif" font-size="250" font-weight="900" letter-spacing="-8" stroke="#D4D4D4" stroke-width="10" paint-order="stroke fill markers" fill="#474749">
    <text x="42" y="515">OPTI</text>
    <text x="1038" y="515">CABLE</text>
  </g>
  <g transform="translate(746 62) scale(1.38)">
    <path d="M94 74L126 51V177L94 156V74Z" stroke="url(#markStroke)" stroke-width="10" stroke-linejoin="round"/>
    <path d="M78 98L110 120V252C100 257 91 264 82 272L68 258C71 255 74 252 78 249V98Z" fill="url(#markFill)" opacity="0.9"/>
    <path d="M78 98L110 120V252C100 257 91 264 82 272L68 258C71 255 74 252 78 249V98Z" stroke="url(#markStroke)" stroke-width="10" stroke-linejoin="round"/>
    <path d="M124 52L156 31V232L124 260V52Z" stroke="url(#markStroke)" stroke-width="10" stroke-linejoin="round"/>
    <path d="M202 82L170 61V206L202 227V82Z" stroke="url(#markStroke)" stroke-width="10" stroke-linejoin="round"/>
    <path d="M156 116L122 148V290C147 279 165 279 188 290V148L156 116Z" fill="url(#markFill)"/>
    <path d="M122 148L156 116L188 148" stroke="url(#markStroke)" stroke-width="10" stroke-linejoin="round"/>
    <path d="M122 148V290" stroke="url(#markStroke)" stroke-width="10" stroke-linejoin="round"/>
    <path d="M188 148V290" stroke="url(#markStroke)" stroke-width="10" stroke-linejoin="round"/>
    <path d="M156 166V248" stroke="url(#markStroke)" stroke-width="10" stroke-linecap="round"/>
    <rect x="142" y="126" width="12" height="12" fill="#4BDB89"/>
    <rect x="158" y="126" width="12" height="12" fill="#4BDB89"/>
    <rect x="142" y="142" width="12" height="12" fill="#4BDB89"/>
    <rect x="158" y="142" width="12" height="12" fill="#4BDB89"/>
    <path d="M48 250C76 225 108 210 135 207" stroke="url(#markStroke)" stroke-width="16" stroke-linecap="round"/>
    <path d="M264 250C236 225 204 210 177 207" stroke="url(#markStroke)" stroke-width="16" stroke-linecap="round"/>
    <path d="M82 282C103 264 126 252 145 250" stroke="url(#markStroke)" stroke-width="16" stroke-linecap="round"/>
    <path d="M230 282C209 264 186 252 167 250" stroke="url(#markStroke)" stroke-width="16" stroke-linecap="round"/>
    <path d="M122 310C132 300 144 294 156 294C168 294 180 300 190 310" stroke="url(#markStroke)" stroke-width="16" stroke-linecap="round"/>
    <circle cx="156" cy="332" r="18" fill="#0E6D4D"/>
  </g>
</svg>

